<svg xmlns="http://www.w3.org/2000/svg" xmlns:xlink="http://www.w3.org/1999/xlink" id="Capa_1" width="512" height="512" enable-background="new 0 0 513.69 513.69" viewBox="0 0 513.69 513.69"><linearGradient id="SVGID_1_" x1="75.826" x2="437.864" y1="437.019" y2="74.981" gradientUnits="userSpaceOnUse"><stop offset="0" stop-color="#00aa45"/><stop offset="1" stop-color="#d3ff33"/></linearGradient><radialGradient id="SVGID_2_" cx="256.845" cy="257.69" r="256" gradientUnits="userSpaceOnUse"><stop offset="0" stop-color="#00aa45" stop-opacity=".6"/><stop offset=".109" stop-color="#0fb044" stop-opacity=".535"/><stop offset=".317" stop-color="#35bf40" stop-opacity=".41"/><stop offset=".603" stop-color="#73d83b" stop-opacity=".238"/><stop offset=".952" stop-color="#c7fa34" stop-opacity=".029"/><stop offset="1" stop-color="#d3ff33" stop-opacity="0"/></radialGradient><linearGradient id="lg1"><stop offset="0" stop-color="#b8ef5c"/><stop offset=".269" stop-color="#b9ef5e"/><stop offset=".417" stop-color="#bdf066"/><stop offset=".536" stop-color="#c3f174"/><stop offset=".639" stop-color="#cbf388"/><stop offset=".733" stop-color="#d6f6a1"/><stop offset=".819" stop-color="#e4f9c0"/><stop offset=".897" stop-color="#f3fce4"/><stop offset=".946" stop-color="#fff"/></linearGradient><linearGradient id="SVGID_3_" x1="114.595" x2="341.108" y1="197.104" y2="197.104" gradientUnits="userSpaceOnUse" xlink:href="#lg1"/><linearGradient id="lg2"><stop offset="0" stop-color="#23b842"/><stop offset=".094" stop-color="#39c03e"/><stop offset=".262" stop-color="#5acc38"/><stop offset=".434" stop-color="#74d534"/><stop offset=".611" stop-color="#86dc31"/><stop offset=".796" stop-color="#91e02f"/><stop offset="1" stop-color="#95e12e"/></linearGradient><radialGradient id="SVGID_4_" cx="127.131" cy="252.355" r="191.134" gradientUnits="userSpaceOnUse" xlink:href="#lg2"/><linearGradient id="SVGID_5_" x1="114.595" x2="341.108" y1="197.104" y2="197.104" gradientTransform="matrix(1 0 0 -1 0 512)" gradientUnits="userSpaceOnUse" xlink:href="#lg1"/><radialGradient id="SVGID_6_" cx="127.131" cy="252.355" r="191.134" gradientTransform="matrix(1 0 0 -1 0 512)" gradientUnits="userSpaceOnUse" xlink:href="#lg2"/><radialGradient id="SVGID_7_" cx="125.845" cy="256" r="105" gradientUnits="userSpaceOnUse"><stop offset=".567" stop-color="#00aa45" stop-opacity=".4"/><stop offset=".703" stop-color="#12b143" stop-opacity=".274"/><stop offset=".856" stop-color="#1fb642" stop-opacity=".133"/><stop offset="1" stop-color="#23b842" stop-opacity="0"/></radialGradient><linearGradient id="lg3"><stop offset="0" stop-color="#b8ef5c"/><stop offset=".462" stop-color="#daf7a9"/><stop offset="1" stop-color="#fff"/></linearGradient><linearGradient id="SVGID_8_" x1="48.415" x2="203.638" y1="333.43" y2="178.207" gradientUnits="userSpaceOnUse" xlink:href="#lg3"/><linearGradient id="lg4"><stop offset="0" stop-color="#95e12e"/><stop offset=".169" stop-color="#a7e54b" stop-opacity=".898"/><stop offset=".388" stop-color="#bbe869" stop-opacity=".767"/><stop offset=".602" stop-color="#c9eb7f" stop-opacity=".639"/><stop offset=".809" stop-color="#d1ec8c" stop-opacity=".514"/><stop offset="1" stop-color="#d4ed90" stop-opacity=".4"/></linearGradient><linearGradient id="SVGID_9_" x1="54.385" x2="172.374" y1="327.695" y2="209.707" gradientUnits="userSpaceOnUse" xlink:href="#lg4"/><radialGradient id="SVGID_10_" cx="329.845" cy="373.779" r="105" gradientUnits="userSpaceOnUse"><stop offset=".5" stop-color="#00aa45" stop-opacity=".4"/><stop offset=".647" stop-color="#10b044" stop-opacity=".282"/><stop offset=".837" stop-color="#1eb642" stop-opacity=".131"/><stop offset="1" stop-color="#23b842" stop-opacity="0"/></radialGradient><linearGradient id="SVGID_11_" x1="252.415" x2="407.638" y1="451.209" y2="295.987" gradientUnits="userSpaceOnUse" xlink:href="#lg3"/><linearGradient id="SVGID_12_" x1="258.385" x2="376.374" y1="445.475" y2="327.486" gradientUnits="userSpaceOnUse" xlink:href="#lg4"/><radialGradient id="SVGID_13_" cx="329.857" cy="138.208" r="105" gradientUnits="userSpaceOnUse"><stop offset=".5" stop-color="#00aa45" stop-opacity=".2"/><stop offset=".778" stop-color="#16b343" stop-opacity=".089"/><stop offset="1" stop-color="#23b842" stop-opacity="0"/></radialGradient><linearGradient id="SVGID_14_" x1="238.231" x2="393.453" y1="229.835" y2="74.612" gradientUnits="userSpaceOnUse" xlink:href="#lg3"/><linearGradient id="SVGID_15_" x1="197.731" x2="365.727" y1="255.334" y2="87.339" gradientUnits="userSpaceOnUse" xlink:href="#lg3"/><linearGradient id="SVGID_16_" x1="258.398" x2="376.386" y1="209.903" y2="91.915" gradientUnits="userSpaceOnUse" xlink:href="#lg4"/><g><circle cx="256.845" cy="256" r="256" fill="url(#SVGID_1_)"/><circle cx="256.845" cy="257.69" r="256" fill="url(#SVGID_2_)"/><path fill="url(#SVGID_3_)" d="m137.095 275.485-22.5-38.97 204.013-117.792 22.5 38.97z"/><path fill="url(#SVGID_4_)" d="m137.095 276.187c-8.252-13.314-16.503-26.551-24.616-39.672 67.848-38.081 140.397-80.764 206.128-118.493 8.252 13.314 16.503 26.551 24.615 39.672-67.847 38.08-140.396 80.763-206.127 118.493z"/><path fill="url(#SVGID_5_)" d="m137.095 236.515-22.5 38.97 204.013 117.792 22.5-38.97z"/><path fill="url(#SVGID_6_)" d="m137.095 235.813c-8.252 13.314-16.503 26.551-24.616 39.672 67.848 38.081 140.397 80.764 206.128 118.493 8.252-13.314 16.503-26.551 24.615-39.672-67.847-38.08-140.396-80.763-206.127-118.493z"/><circle cx="125.845" cy="256" r="105" fill="url(#SVGID_7_)"/><circle cx="125.845" cy="256" r="75" fill="url(#SVGID_8_)"/><path fill="url(#SVGID_9_)" d="m140.845 301c-41.421 0-75-33.579-75-75 0-6.099.746-12.022 2.12-17.699-10.695 12.963-17.12 29.581-17.12 47.699 0 41.421 33.579 75 75 75 35.322 0 64.923-24.424 72.88-57.301-13.756 16.673-34.577 27.301-57.88 27.301z"/><circle cx="329.845" cy="373.779" r="105" fill="url(#SVGID_10_)"/><circle cx="329.845" cy="373.779" r="75" fill="url(#SVGID_11_)"/><path fill="url(#SVGID_12_)" d="m344.845 418.779c-41.421 0-75-33.579-75-75 0-6.099.746-12.022 2.12-17.699-10.695 12.963-17.12 29.581-17.12 47.699 0 41.421 33.579 75 75 75 35.322 0 64.923-24.424 72.88-57.301-13.756 16.674-34.577 27.301-57.88 27.301z"/><circle cx="329.857" cy="138.208" r="105" fill="url(#SVGID_13_)"/><circle cx="329.857" cy="138.208" r="75" fill="url(#SVGID_14_)"/><path fill="url(#SVGID_15_)" d="m300.128 69.344c3.125 38.548 35.376 68.864 74.729 68.864 10.564 0 20.612-2.195 29.729-6.136-3.125-38.548-35.376-68.864-74.729-68.864-10.564 0-20.612 2.195-29.729 6.136z"/><path fill="url(#SVGID_16_)" d="m344.857 183.208c-41.421 0-75-33.579-75-75 0-6.099.746-12.022 2.12-17.699-10.695 12.963-17.12 29.581-17.12 47.699 0 41.421 33.579 75 75 75 35.322 0 64.923-24.424 72.88-57.301-13.756 16.673-34.576 27.301-57.88 27.301z"/></g></svg>